<svg xmlns="http://www.w3.org/2000/svg" xmlns:xlink="http://www.w3.org/1999/xlink" id="Layer_1" x="0" y="0" enable-background="new 0 0 446 409" version="1.1" viewBox="0 0 446 409" xml:space="preserve"><g id="planet_1"><path fill="#333C43" d="M21,171h90c11.6,0,21,9.4,21,21l0,0c0,11.6-9.4,21-21,21H21c-11.6,0-21-9.4-21-21l0,0 C0,180.4,9.4,171,21,171z"/><path fill="#333C43" d="M101,326h58c5.5,0,10,4.5,10,10l0,0c0,5.5-4.5,10-10,10h-58c-5.5,0-10-4.5-10-10l0,0 C91,330.5,95.5,326,101,326z"/><path fill="#333C43" d="M91,70h38c5.5,0,10,4.5,10,10l0,0c0,5.5-4.5,10-10,10H91c-5.5,0-10-4.5-10-10l0,0 C81,74.5,85.5,70,91,70z"/><path fill="#333C43" d="M424,256h-10c-8.8,0-16-7.2-16-16s7.2-16,16-16c17.7,0,32-14.3,32-32s-14.3-32-32-32h-41 c-8.8,0-16-7.2-16-16s7.2-16,16-16h1c17.7,0,32-14.3,32-32s-14.3-32-32-32h-21c-8.8,0-16-7.2-16-16l0,0c0-8.8-7.2-16-16-16h-28 c-8.8,0-16-7.2-16-16l0,0c0-8.8-7.2-16-16-16h-82c-8.8,0-16,7.2-16,16l0,0c0,8.8-7.2,16-16,16h-18c-8.8,0-16,7.2-16,16l0,0 c0,8.8,7.2,16,16,16s16,7.2,16,16s-7.2,16-16,16H63c-17.7,0-32,14.3-32,32s14.3,32,32,32h48c17.7,0,32,14.3,32,32s-14.3,32-32,32 H81c-26.5,0-48,21.5-48,48s21.5,48,48,48h78c8.8,0,16,7.2,16,16s-7.2,16-16,16s-16,7.2-16,16l0,0c0,8.8,7.2,16,16,16h122 c8.8,0,16-7.2,16-16s7.2-16,16-16h8c8.8,0,16-7.2,16-16s7.2-16,16-16h5.1c8.8,0,15.9-7.2,15.9-16c0-8.8,7.2-16,16-16h34 c8.8,0,16-7.2,16-16l0,0C440,263.2,432.8,256,424,256z"/><path fill="#333C43" d="M374,134h38c5.5,0,10,4.5,10,10l0,0c0,5.5-4.5,10-10,10h-38c-5.5,0-10-4.5-10-10l0,0 C364,138.5,368.5,134,374,134z"/><path fill="#333C43" d="M414,230h9c5.5,0,10,4.5,10,10l0,0c0,5.5-4.5,10-10,10h-9c-5.5,0-10-4.5-10-10l0,0 C404,234.5,408.5,230,414,230z"/><path fill="#333C43" d="M204,389h39c5.5,0,10,4.5,10,10l0,0c0,5.5-4.5,10-10,10h-39c-5.5,0-10-4.5-10-10l0,0 C194,393.5,198.5,389,204,389z"/></g><g id="star"><path fill="#FFF" d="M365,87h-4v-4c0-1.1-0.9-2-2-2s-2,0.9-2,2v4h-4 c-1.1,0-2,0.9-2,2s0.9,2,2,2h4v4c0,1.1,0.9,2,2,2s2-0.9,2-2v-4h4c1.1,0,2-0.9,2-2S366.1,87,365,87z" enable-background="new" opacity=".9"/><path fill="#FFF" d="M322,138h-2v-2c0-0.6-0.4-1-1-1s-1,0.4-1,1v2h-2 c-0.6,0-1,0.4-1,1s0.4,1,1,1h2v2c0,0.6,0.4,1,1,1s1-0.4,1-1v-2h2c0.6,0,1-0.4,1-1S322.6,138,322,138z" enable-background="new" opacity=".8"/><path fill="#FFF" d="M272,68h-2v-2c0-0.6-0.4-1-1-1s-1,0.4-1,1v2h-2 c-0.6,0-1,0.4-1,1s0.4,1,1,1h2v2c0,0.6,0.4,1,1,1s1-0.4,1-1v-2h2c0.6,0,1-0.4,1-1S272.6,68,272,68z" enable-background="new" opacity=".8"/><path fill="#FFF" d="M402,175h-2v-2c0-0.6-0.4-1-1-1s-1,0.4-1,1v2h-2 c-0.6,0-1,0.4-1,1s0.4,1,1,1h2v2c0,0.6,0.4,1,1,1s1-0.4,1-1v-2h2c0.6,0,1-0.4,1-1S402.6,175,402,175z" enable-background="new" opacity=".8"/><path fill="#FFF" d="M342,213h-2v-2c0-0.6-0.4-1-1-1s-1,0.4-1,1v2h-2 c-0.6,0-1,0.4-1,1s0.4,1,1,1h2v2c0,0.6,0.4,1,1,1s1-0.4,1-1v-2h2c0.6,0,1-0.4,1-1S342.6,213,342,213z" enable-background="new" opacity=".8"/><path fill="#FFF" d="M372,263h-2v-2c0-0.6-0.4-1-1-1s-1,0.4-1,1v2h-2 c-0.6,0-1,0.4-1,1s0.4,1,1,1h2v2c0,0.6,0.4,1,1,1s1-0.4,1-1v-2h2c0.6,0,1-0.4,1-1S372.6,263,372,263z" enable-background="new" opacity=".8"/><path fill="#FFF" d="M102,253h-2v-2c0-0.6-0.4-1-1-1s-1,0.4-1,1v2h-2 c-0.6,0-1,0.4-1,1s0.4,1,1,1h2v2c0,0.6,0.4,1,1,1s1-0.4,1-1v-2h2c0.6,0,1-0.4,1-1S102.6,253,102,253z" enable-background="new" opacity=".8"/><path fill="#FFF" d="M85,120h-4v-4c0-1.1-0.9-2-2-2s-2,0.9-2,2v4h-4 c-1.1,0-2,0.9-2,2s0.9,2,2,2h4v4c0,1.1,0.9,2,2,2s2-0.9,2-2v-4h4c1.1,0,2-0.9,2-2S86.1,120,85,120z" enable-background="new" opacity=".9"/><path fill="#FFF" d="M182,187h-2v-2c0-0.6-0.4-1-1-1s-1,0.4-1,1v2h-2 c-0.6,0-1,0.4-1,1s0.4,1,1,1h2v2c0,0.6,0.4,1,1,1s1-0.4,1-1v-2h2c0.6,0,1-0.4,1-1S182.6,187,182,187z" enable-background="new" opacity=".8"/><path fill="#FFF" d="M225,126h-4v-4c0-1.1-0.9-2-2-2s-2,0.9-2,2v4h-4 c-1.1,0-2,0.9-2,2s0.9,2,2,2h4v4c0,1.1,0.9,2,2,2s2-0.9,2-2v-4h4c1.1,0,2-0.9,2-2S226.1,126,225,126z" enable-background="new" opacity=".9"/><path fill="#FFF" d="M172,87h-2v-2c0-0.6-0.4-1-1-1s-1,0.4-1,1v2h-2 c-0.6,0-1,0.4-1,1s0.4,1,1,1h2v2c0,0.6,0.4,1,1,1s1-0.4,1-1v-2h2c0.6,0,1-0.4,1-1S172.6,87,172,87z" enable-background="new" opacity=".8"/><path fill="#FFF" d="M298,315h-6v-6c0-1.7-1.3-3-3-3s-3,1.3-3,3v6h-6c-1.7,0-3,1.3-3,3s1.3,3,3,3h6v6c0,1.7,1.3,3,3,3 s3-1.3,3-3v-6h6c1.7,0,3-1.3,3-3S299.7,315,298,315z"/><path fill="#FFF" d="M142,147h-2v-2c0-0.6-0.4-1-1-1s-1,0.4-1,1v2h-2 c-0.6,0-1,0.4-1,1s0.4,1,1,1h2v2c0,0.6,0.4,1,1,1s1-0.4,1-1v-2h2c0.6,0,1-0.4,1-1S142.6,147,142,147z" enable-background="new" opacity=".8"/><path fill="#FFF" d="M192,357h-2v-2c0-0.6-0.4-1-1-1s-1,0.4-1,1v2h-2 c-0.6,0-1,0.4-1,1s0.4,1,1,1h2v2c0,0.6,0.4,1,1,1s1-0.4,1-1v-2h2c0.6,0,1-0.4,1-1S192.6,357,192,357z" enable-background="new" opacity=".8"/><path fill="#FFF" d="M125,286h-4v-4c0-1.1-0.9-2-2-2s-2,0.9-2,2v4h-4 c-1.1,0-2,0.9-2,2s0.9,2,2,2h4v4c0,1.1,0.9,2,2,2s2-0.9,2-2v-4h4c1.1,0,2-0.9,2-2S126.1,286,125,286z" enable-background="new" opacity=".9"/><path fill="#FFF" d="M222,257h-2v-2c0-0.6-0.4-1-1-1s-1,0.4-1,1v2h-2 c-0.6,0-1,0.4-1,1s0.4,1,1,1h2v2c0,0.6,0.4,1,1,1s1-0.4,1-1v-2h2c0.6,0,1-0.4,1-1S222.6,257,222,257z" enable-background="new" opacity=".8"/><path fill="#FFF" d="M312,287h-2v-2c0-0.6-0.4-1-1-1s-1,0.4-1,1v2h-2 c-0.6,0-1,0.4-1,1s0.4,1,1,1h2v2c0,0.6,0.4,1,1,1s1-0.4,1-1v-2h2c0.6,0,1-0.4,1-1S312.6,287,312,287z" enable-background="new" opacity=".8"/><path fill="#FFF" d="M272,227h-2v-2c0-0.6-0.4-1-1-1s-1,0.4-1,1v2h-2 c-0.6,0-1,0.4-1,1s0.4,1,1,1h2v2c0,0.6,0.4,1,1,1s1-0.4,1-1v-2h2c0.6,0,1-0.4,1-1S272.6,227,272,227z" enable-background="new" opacity=".8"/><path fill="#FFF" d="M282,167h-2v-2c0-0.6-0.4-1-1-1s-1,0.4-1,1v2h-2 c-0.6,0-1,0.4-1,1s0.4,1,1,1h2v2c0,0.6,0.4,1,1,1s1-0.4,1-1v-2h2c0.6,0,1-0.4,1-1S282.6,167,282,167z" enable-background="new" opacity=".8"/><path fill="#FFF" d="M322,47h-2v-2c0-0.6-0.4-1-1-1s-1,0.4-1,1v2h-2 c-0.6,0-1,0.4-1,1s0.4,1,1,1h2v2c0,0.6,0.4,1,1,1s1-0.4,1-1v-2h2c0.6,0,1-0.4,1-1S322.6,47,322,47z" enable-background="new" opacity=".8"/><path fill="#FFF" d="M202,27h-2v-2c0-0.6-0.4-1-1-1s-1,0.4-1,1v2h-2 c-0.6,0-1,0.4-1,1s0.4,1,1,1h2v2c0,0.6,0.4,1,1,1s1-0.4,1-1v-2h2c0.6,0,1-0.4,1-1S202.6,27,202,27z" enable-background="new" opacity=".8"/><path fill="#FFF" d="M172,298h-2v-2c0-0.6-0.4-1-1-1s-1,0.4-1,1v2h-2 c-0.6,0-1,0.4-1,1s0.4,1,1,1h2v2c0,0.6,0.4,1,1,1s1-0.4,1-1v-2h2c0.6,0,1-0.4,1-1S172.6,298,172,298z" enable-background="new" opacity=".8"/><path fill="#FFF" d="M42,187h-2v-2c0-0.6-0.4-1-1-1s-1,0.4-1,1v2h-2 c-0.6,0-1,0.4-1,1s0.4,1,1,1h2v2c0,0.6,0.4,1,1,1s1-0.4,1-1v-2h2c0.6,0,1-0.4,1-1S42.6,187,42,187z" enable-background="new" opacity=".8"/><path fill="#FFF" d="M412,143h-2v-2c0-0.6-0.4-1-1-1s-1,0.4-1,1v2h-2c-0.6,0-1,0.4-1,1s0.4,1,1,1h2v2c0,0.6,0.4,1,1,1 s1-0.4,1-1v-2h2c0.6,0,1-0.4,1-1S412.6,143,412,143z"/><path fill="#FFF" d="M222,57h-2v-2c0-0.6-0.4-1-1-1s-1,0.4-1,1v2h-2 c-0.6,0-1,0.4-1,1s0.4,1,1,1h2v2c0,0.6,0.4,1,1,1s1-0.4,1-1v-2h2c0.6,0,1-0.4,1-1S222.6,57,222,57z" enable-background="new" opacity=".8"/><path fill="#FFF" d="M272,367h-2v-2c0-0.6-0.4-1-1-1s-1,0.4-1,1v2h-2 c-0.6,0-1,0.4-1,1s0.4,1,1,1h2v2c0,0.6,0.4,1,1,1s1-0.4,1-1v-2h2c0.6,0,1-0.4,1-1S272.6,367,272,367z" enable-background="new" opacity=".8"/><path fill="#FFF" d="M162,237h-2v-2c0-0.6-0.4-1-1-1s-1,0.4-1,1v2h-2 c-0.6,0-1,0.4-1,1s0.4,1,1,1h2v2c0,0.6,0.4,1,1,1s1-0.4,1-1v-2h2c0.6,0,1-0.4,1-1S162.6,237,162,237z" enable-background="new" opacity=".8"/><path fill="#FFF" d="M222,327h-2v-2c0-0.6-0.4-1-1-1s-1,0.4-1,1v2h-2 c-0.6,0-1,0.4-1,1s0.4,1,1,1h2v2c0,0.6,0.4,1,1,1s1-0.4,1-1v-2h2c0.6,0,1-0.4,1-1S222.6,327,222,327z" enable-background="new" opacity=".8"/><path fill="#FFF" d="M72,277h-2v-2c0-0.6-0.4-1-1-1s-1,0.4-1,1v2h-2 c-0.6,0-1,0.4-1,1s0.4,1,1,1h2v2c0,0.6,0.4,1,1,1s1-0.4,1-1v-2h2c0.6,0,1-0.4,1-1S72.6,277,72,277z" enable-background="new" opacity=".8"/><path fill="#FFF" d="M172,117h-2v-2c0-0.6-0.4-1-1-1s-1,0.4-1,1v2h-2 c-0.6,0-1,0.4-1,1s0.4,1,1,1h2v2c0,0.6,0.4,1,1,1s1-0.4,1-1v-2h2c0.6,0,1-0.4,1-1S172.6,117,172,117z" enable-background="new" opacity=".8"/><path fill="#FFF" d="M222,167h-2v-2c0-0.6-0.4-1-1-1s-1,0.4-1,1v2h-2 c-0.6,0-1,0.4-1,1s0.4,1,1,1h2v2c0,0.6,0.4,1,1,1s1-0.4,1-1v-2h2c0.6,0,1-0.4,1-1S222.6,167,222,167z" enable-background="new" opacity=".8"/><path fill="#FFF" d="M294,113h-2v-2c0-0.6-0.4-1-1-1s-1,0.4-1,1v2h-2 c-0.6,0-1,0.4-1,1s0.4,1,1,1h2v2c0,0.6,0.4,1,1,1s1-0.4,1-1v-2h2c0.6,0,1-0.4,1-1S294.6,113,294,113z" enable-background="new" opacity=".8"/></g><g id="planet"><g id="Planet-2"><circle cx="286" cy="174" r="65" fill="#7AD0E7" enable-background="new" opacity=".5"/><circle cx="286" cy="174" r="59.1" fill="#74CDDD"/><g><defs><circle id="SVGID_1_" cx="286" cy="174" r="59.1"/></defs><clipPath id="SVGID_2_"><use overflow="visible" xlink:href="#SVGID_1_"/></clipPath><g clip-path="url(#SVGID_2_)"><path fill="#7AD0E7" d="M296.2,111.6c0,0,20.4,11.5,11.5,29.3s-33.1-3.9-52.3-3.9s-28,25.5-28,37s-65-66.3-22.9-70.1 S296.2,111.6,296.2,111.6z"/><path fill="#6DCAD0" d="M331.2,135.8c0,0-8.2,56-56.6,39.4s-43.5,4.6-35.1,19.5s35.1,25.1,50.4,22.6s79-58.6,62.5-77.8 S331.2,135.8,331.2,135.8z"/><path fill="#62C7CD" d="M340.3,150.5c0,0-82.3,105.1-112.9,23.5s-48.4,30.6-48.4,30.6s66.3,70.1,102,66.3 s99.4-7.6,99.4-38.2S340.3,150.5,340.3,150.5z"/><path fill="#54C4C6" d="M338.6,201.4c0,0,7.3-17.2-9.2-15.9s-35,53.5-84.4,31.2s-20.1,56.7,2.9,52.9 S340.2,236.4,338.6,201.4z"/></g></g></g></g></svg>